<svg width="248" height="172" viewBox="0 0 248 172" fill="none" xmlns="http://www.w3.org/2000/svg">
<g clip-path="url(#clip0_5_251)">
<path d="M49.4124 172C76.702 172 98.8247 170.325 98.8247 168.259C98.8247 166.193 76.702 164.518 49.4124 164.518C22.1227 164.518 0 166.193 0 168.259C0 170.325 22.1227 172 49.4124 172Z" fill="#E6E6E6"/>
<path d="M37.7699 38.1638C46.3691 34.5178 57.0796 36.8279 67.5396 38.4311C67.6369 36.4896 68.8167 34.1266 67.5808 32.772C66.0793 31.1264 66.2176 29.3973 67.1211 27.6582C69.4316 23.2112 66.1213 18.4793 62.779 14.5447C62.0257 13.6599 61.0736 12.9647 60.0001 12.5156C58.9266 12.0664 57.7619 11.876 56.6008 11.9598L50.4094 12.4007C48.9027 12.5079 47.4649 13.0713 46.2883 14.0154C45.1117 14.9595 44.2524 16.2393 43.8253 17.6835C42.3469 19.6878 41.5557 21.6865 42.0539 23.6748C39.8395 25.1833 39.4674 27.0042 40.4625 29.057C41.3063 30.3494 41.2973 31.6075 40.4241 32.8308C39.2774 34.3904 38.3991 36.1294 37.8252 37.9765L37.7699 38.1638Z" fill="#2F2E41"/>
<path d="M242.123 148.691H66.8603C65.3017 148.691 63.8069 148.074 62.7048 146.975C61.6028 145.877 60.9836 144.387 60.9836 142.833C124.516 135.473 186.855 135.473 248 142.833C248 144.387 247.381 145.877 246.279 146.975C245.177 148.074 243.682 148.691 242.123 148.691Z" fill="#2F2E41"/>
<path d="M248 143.178L60.9836 142.833L82.6582 106.479L82.7619 106.306V26.1855C82.7618 25.213 82.9539 24.25 83.3272 23.3515C83.7005 22.453 84.2477 21.6366 84.9375 20.949C85.6274 20.2613 86.4463 19.7159 87.3477 19.3437C88.249 18.9716 89.2151 18.7801 90.1907 18.7802H217.756C218.731 18.7801 219.698 18.9716 220.599 19.3437C221.5 19.7159 222.319 20.2613 223.009 20.949C223.699 21.6366 224.246 22.453 224.619 23.3515C224.993 24.25 225.185 25.213 225.185 26.1855V106.858L248 143.178Z" fill="#3F3D56"/>
<path d="M90.0213 23.9491C89.3797 23.9498 88.7647 24.2042 88.311 24.6564C87.8574 25.1086 87.6022 25.7217 87.6015 26.3612V99.4146C87.6022 100.054 87.8574 100.667 88.311 101.119C88.7647 101.572 89.3797 101.826 90.0213 101.827H218.962C219.604 101.826 220.219 101.572 220.673 101.119C221.126 100.667 221.381 100.054 221.382 99.4146V26.3612C221.381 25.7217 221.126 25.1086 220.673 24.6564C220.219 24.2042 219.604 23.9498 218.962 23.9491H90.0213Z" fill="white"/>
<path d="M90.5616 111.475C90.3633 111.476 90.1693 111.533 90.0024 111.639C89.8355 111.746 89.7026 111.898 89.6194 112.077L82.9408 126.55C82.8681 126.707 82.8363 126.881 82.8483 127.054C82.8603 127.226 82.9158 127.394 83.0096 127.54C83.1035 127.686 83.2326 127.806 83.3852 127.889C83.5378 127.972 83.7089 128.016 83.8828 128.016H224.33C224.507 128.016 224.681 127.971 224.835 127.885C224.99 127.799 225.119 127.675 225.212 127.525C225.305 127.376 225.358 127.204 225.366 127.028C225.374 126.852 225.337 126.677 225.258 126.52L217.998 112.047C217.913 111.875 217.78 111.73 217.616 111.629C217.453 111.528 217.264 111.475 217.071 111.475H90.5616Z" fill="#2F2E41"/>
<path d="M153.973 22.743C154.832 22.743 155.529 22.0488 155.529 21.1924C155.529 20.336 154.832 19.6417 153.973 19.6417C153.114 19.6417 152.418 20.336 152.418 21.1924C152.418 22.0488 153.114 22.743 153.973 22.743Z" fill="white"/>
<path d="M140.168 130.772C139.94 130.773 139.719 130.848 139.538 130.986C139.357 131.124 139.227 131.318 139.167 131.537L137.492 137.74C137.451 137.893 137.445 138.054 137.476 138.21C137.507 138.365 137.573 138.512 137.67 138.638C137.767 138.764 137.891 138.866 138.034 138.936C138.177 139.006 138.334 139.043 138.493 139.043H170.353C170.518 139.043 170.681 139.003 170.828 138.928C170.975 138.852 171.102 138.743 171.198 138.608C171.293 138.474 171.356 138.319 171.379 138.156C171.403 137.993 171.387 137.826 171.333 137.671L169.179 131.468C169.108 131.265 168.976 131.089 168.8 130.964C168.625 130.84 168.414 130.773 168.199 130.772H140.168Z" fill="#2F2E41"/>
<path d="M225.185 105.1V106.479H82.6581L82.7654 106.307V105.1H225.185Z" fill="#2F2E41"/>
<path d="M221.209 48.2428C234.574 48.2428 245.407 37.4433 245.407 24.1214C245.407 10.7995 234.574 0 221.209 0C207.845 0 197.011 10.7995 197.011 24.1214C197.011 37.4433 207.845 48.2428 221.209 48.2428Z" fill="#407BFF"/>
<path d="M231.234 34.6315H211.184C210.818 34.6311 210.466 34.4858 210.207 34.2274C209.948 33.9689 209.802 33.6186 209.802 33.2531V21.1924C209.802 20.8269 209.948 20.4766 210.207 20.2182C210.466 19.9598 210.818 19.8144 211.184 19.814H231.234C231.601 19.8144 231.952 19.9598 232.212 20.2182C232.471 20.4766 232.617 20.8269 232.617 21.1924V33.2531C232.617 33.6185 232.471 33.9689 232.212 34.2274C231.952 34.4858 231.601 34.6311 231.234 34.6315ZM211.184 21.1924V33.2531H231.235L231.234 21.1924L211.184 21.1924Z" fill="white"/>
<path d="M227.432 21.1924H214.987V15.6789C214.987 11.6855 217.604 8.78711 221.209 8.78711C224.815 8.78711 227.432 11.6855 227.432 15.6789L227.432 21.1924ZM216.37 19.814H226.049V15.6789C226.049 12.4327 224.059 10.1655 221.209 10.1655C218.36 10.1655 216.37 12.4328 216.37 15.6789L216.37 19.814Z" fill="white"/>
<path d="M221.209 28.2565C221.973 28.2565 222.592 27.6394 222.592 26.8781C222.592 26.1169 221.973 25.4998 221.209 25.4998C220.446 25.4998 219.827 26.1169 219.827 26.8781C219.827 27.6394 220.446 28.2565 221.209 28.2565Z" fill="white"/>
<path d="M204.317 77.0478H104.667C104.177 77.0473 103.708 76.8533 103.362 76.5084C103.016 76.1636 102.822 75.696 102.821 75.2083V50.5676C102.822 50.0799 103.016 49.6124 103.362 49.2675C103.708 48.9227 104.177 48.7287 104.667 48.7281H204.317C204.806 48.7287 205.275 48.9227 205.621 49.2675C205.967 49.6124 206.162 50.0799 206.162 50.5676V75.2083C206.162 75.696 205.967 76.1636 205.621 76.5084C205.275 76.8533 204.806 77.0473 204.317 77.0478ZM104.667 49.4639C104.373 49.4642 104.092 49.5806 103.884 49.7875C103.677 49.9945 103.56 50.275 103.559 50.5676V75.2083C103.56 75.5009 103.677 75.7815 103.884 75.9884C104.092 76.1953 104.373 76.3117 104.667 76.312H204.317C204.611 76.3117 204.892 76.1953 205.1 75.9884C205.307 75.7815 205.424 75.5009 205.424 75.2083V50.5676C205.424 50.275 205.307 49.9944 205.1 49.7875C204.892 49.5806 204.611 49.4642 204.317 49.4639L104.667 49.4639Z" fill="#E6E6E6"/>
<path d="M120.15 69.4358C124.302 69.4358 127.667 66.0809 127.667 61.9425C127.667 57.8041 124.302 54.4492 120.15 54.4492C115.999 54.4492 112.633 57.8041 112.633 61.9425C112.633 66.0809 115.999 69.4358 120.15 69.4358Z" fill="#E6E6E6"/>
<path d="M137.511 56.947C137.346 56.9467 137.183 56.9788 137.031 57.0415C136.879 57.1041 136.741 57.1961 136.624 57.312C136.507 57.428 136.415 57.5658 136.352 57.7175C136.289 57.8691 136.256 58.0317 136.256 58.1958C136.256 58.36 136.289 58.5226 136.352 58.6742C136.415 58.8259 136.507 58.9636 136.624 59.0796C136.741 59.1956 136.879 59.2876 137.031 59.3502C137.183 59.4129 137.346 59.445 137.511 59.4447H196.574C196.906 59.4447 197.225 59.3131 197.46 59.0789C197.695 58.8447 197.827 58.5271 197.827 58.1958C197.827 57.8646 197.695 57.547 197.46 57.3127C197.225 57.0785 196.906 56.947 196.574 56.947H137.511Z" fill="#E6E6E6"/>
<path d="M137.511 64.4402C137.179 64.4402 136.86 64.5718 136.625 64.806C136.39 65.0402 136.258 65.3579 136.258 65.6891C136.258 66.0203 136.39 66.338 136.625 66.5722C136.86 66.8064 137.179 66.938 137.511 66.938H162.926C163.258 66.938 163.577 66.8064 163.812 66.5722C164.047 66.338 164.179 66.0203 164.179 65.6891C164.179 65.3579 164.047 65.0402 163.812 64.806C163.577 64.5718 163.258 64.4402 162.926 64.4402H137.511Z" fill="#E6E6E6"/>
<path d="M82.4129 64.9454L63.9918 74.7079L63.7586 66.5725C69.7711 65.572 75.4914 63.83 80.7807 60.994L82.7073 56.2492C82.9172 55.7321 83.2584 55.2784 83.6974 54.9326C84.1364 54.5867 84.658 54.3606 85.2112 54.2764C85.7643 54.1922 86.3299 54.2528 86.8524 54.4523C87.3749 54.6518 87.8364 54.9833 88.1916 55.4143C88.7112 56.0449 88.9709 56.8488 88.9182 57.6632C88.8654 58.4776 88.5041 59.2415 87.9075 59.8003L82.4129 64.9454Z" fill="#FFB8B8"/>
<path d="M37.4027 121.311C37.2683 120.819 37.2398 120.305 37.319 119.802C37.3982 119.299 37.5833 118.818 37.8622 118.392L41.9088 112.201C42.8659 110.737 44.3345 109.679 46.0297 109.233C47.7249 108.788 49.5258 108.985 51.0829 109.788C49.3822 112.674 49.6193 115.206 51.6703 117.405C48.4864 118.955 45.5438 120.955 42.9336 123.343C42.4571 123.666 41.9099 123.872 41.3375 123.942C40.7651 124.013 40.1841 123.946 39.643 123.747C39.1019 123.548 38.6163 123.223 38.2266 122.799C37.8369 122.376 37.5544 121.865 37.4027 121.311Z" fill="#2F2E41"/>
<path d="M83.2519 113.216C82.6396 114.234 81.7752 115.077 80.7418 115.665C79.7083 116.254 78.5405 116.568 77.3503 116.577L50.4674 116.78L49.3015 110.039L61.1937 106.552L51.167 98.8817L62.1264 86.0975L82.032 104.592C83.1955 105.673 83.9514 107.119 84.1735 108.689C84.3955 110.259 84.0702 111.857 83.2519 113.216Z" fill="#2F2E41"/>
<path d="M46.2702 159.316H39.9744C34.3216 120.692 28.5677 81.959 45.5707 67.5023L65.624 70.7564L63.0591 87.7246L51.8665 100.509L46.2702 159.316Z" fill="#2F2E41"/>
<path d="M51.8045 168.066C51.3117 168.2 50.7959 168.228 50.2913 168.149C49.7866 168.07 49.3044 167.886 48.8763 167.608L42.0404 166.692C40.5714 165.738 39.5104 164.274 39.0631 162.584C38.6157 160.895 38.814 159.099 39.6195 157.547C42.5144 159.242 45.0539 159.006 47.2607 156.961C48.82 160.1 51.3891 159.908 53.8428 162.552C54.1676 163.027 54.3739 163.573 54.4445 164.143C54.5151 164.714 54.4479 165.293 54.2485 165.832C54.049 166.372 53.7232 166.856 53.2981 167.245C52.873 167.633 52.3609 167.915 51.8045 168.066Z" fill="#2F2E41"/>
<path d="M61.1936 41.7014L49.5347 38.9121C51.4711 34.9611 51.6305 30.5648 50.7006 25.8955L58.6287 25.663C58.8771 31.4694 59.6286 36.894 61.1936 41.7014Z" fill="#FFB8B8"/>
<path d="M64.3979 77.7551C55.9107 83.5202 49.9138 77.9523 45.3375 69.3618C45.9734 64.1052 44.9438 57.8145 43.0368 50.9793C42.1887 47.9644 42.5053 44.7422 43.9242 41.9487C45.343 39.1552 47.7609 36.9935 50.7006 35.8904L60.7273 40.0743C69.2411 46.9921 70.9169 54.4854 67.7227 62.3886L64.3979 77.7551Z" fill="#407BFF"/>
<path d="M39.9743 47.5124L30.6472 52.3937L47.2029 62.1561L49.5065 67.8204C49.6603 68.1985 49.7352 68.6038 49.7267 69.0116C49.7181 69.4195 49.6264 69.8214 49.457 70.1927C49.2876 70.5641 49.0441 70.8971 48.7413 71.1716C48.4385 71.4461 48.0829 71.6562 47.696 71.7892C47.2562 71.9404 46.7873 71.988 46.326 71.9284C45.8646 71.8687 45.4234 71.7034 45.0368 71.4455C44.6503 71.1875 44.3289 70.8438 44.0978 70.4413C43.8668 70.0388 43.7323 69.5885 43.705 69.1255L43.472 65.1779L22.4299 58.256C21.721 58.0228 21.0746 57.6318 20.5396 57.1126C20.0047 56.5935 19.5953 55.9598 19.3424 55.2596C18.9738 54.239 18.955 53.1253 19.289 52.0929C19.6231 51.0605 20.291 50.1676 21.1884 49.5539L38.1089 37.9824L39.9743 47.5124Z" fill="#FFB8B8"/>
<path d="M49.3015 48.4422C45.4115 46.7429 41.8742 48.5889 37.4094 50.0693L36.7099 37.7499C41.1433 35.3945 45.3702 34.7594 49.3015 36.5878L49.3015 48.4422Z" fill="#407BFF"/>
<path d="M53.9548 31.7652C58.0659 31.7652 61.3986 28.4431 61.3986 24.345C61.3986 20.2469 58.0659 16.9248 53.9548 16.9248C49.8437 16.9248 46.511 20.2469 46.511 24.345C46.511 28.4431 49.8437 31.7652 53.9548 31.7652Z" fill="#FFB8B8"/>
<path d="M62.86 23.4087C55.49 24.1283 49.8742 22.9268 46.285 19.5057V16.7505H62.2346L62.86 23.4087Z" fill="#2F2E41"/>
</g>
<defs>
<clipPath id="clip0_5_251">
<rect width="248" height="172" fill="white"/>
</clipPath>
</defs>
</svg>
