<svg width="223" height="135" viewBox="0 0 223 135" fill="none" xmlns="http://www.w3.org/2000/svg">
<path d="M170.734 132.998C167.879 130.564 166.145 126.719 166.6 122.976C167.054 119.232 169.871 115.791 173.525 114.996C177.179 114.201 181.344 116.402 182.454 120.003C183.064 113.06 183.768 105.826 187.427 99.9132C190.74 94.5595 196.477 90.7286 202.696 90.0433C208.914 89.358 215.461 91.9464 219.339 96.8985C223.217 101.851 224.167 109.05 221.451 114.735C219.45 118.924 215.764 122.041 211.901 124.576C199.42 132.702 184.451 136.006 169.748 133.881L170.734 132.998Z" fill="#F2F2F2"/>
<path d="M213.19 92.0899C208.059 96.3066 203.352 101.023 199.137 106.17C192.54 114.198 187.202 123.198 183.308 132.858C183.023 133.563 184.158 133.87 184.439 133.173C190.81 117.473 200.98 103.636 214.019 92.9267C214.605 92.4456 213.771 91.6128 213.19 92.0899Z" fill="white"/>
<path d="M71.7873 132.337C75.7086 128.994 78.0905 123.712 77.4659 118.571C76.8412 113.429 72.9724 108.703 67.9539 107.611C62.9354 106.519 57.2146 109.542 55.6903 114.488C54.8515 104.952 53.8848 95.0157 48.8598 86.8946C44.3098 79.5412 36.429 74.2796 27.8881 73.3383C19.3472 72.3969 10.3547 75.9521 5.02802 82.7539C-0.29864 89.5557 -1.60285 99.444 2.12781 107.253C4.87605 113.006 9.93928 117.287 15.2443 120.77C32.1691 131.881 53.1643 136.516 73.1416 133.549" fill="#F2F2F2"/>
<path d="M13.474 76.1493C20.5213 81.9409 26.9865 88.4184 32.776 95.4881C38.5664 102.551 43.6643 110.163 47.998 118.219C50.4203 122.737 52.5963 127.386 54.5163 132.144C54.9078 133.112 53.3501 133.534 52.9629 132.577C49.5621 124.188 45.3546 116.156 40.4009 108.595C35.4711 101.062 29.8288 94.0293 23.5531 87.5956C20.0036 83.9584 16.2585 80.5209 12.3349 77.2986C11.5307 76.6378 12.6764 75.4939 13.474 76.1493L13.474 76.1493Z" fill="white"/>
<path d="M160.073 134.225H66.5155V37.3709C66.5155 16.7645 83.1309 1.52588e-05 103.554 1.52588e-05H123.035C143.458 1.52588e-05 160.073 16.7645 160.073 37.3709V134.225Z" fill="#F2F2F2"/>
<path d="M140.593 134.225H66.5155V37.3709C66.4951 29.475 68.9731 21.7787 73.5889 15.4024C73.759 15.1684 73.9288 14.9375 74.1038 14.709C76.3364 11.7545 78.9933 9.15257 81.9867 6.989C82.1558 6.86486 82.3256 6.74288 82.4979 6.62089C85.0027 4.87194 87.7123 3.44221 90.5649 2.36423C90.7343 2.29945 90.9068 2.23454 91.0792 2.17228C93.6591 1.24333 96.3335 0.607005 99.053 0.275051C99.2216 0.251814 99.3947 0.23363 99.5678 0.215447C102.218 -0.0704524 104.891 -0.0704524 107.541 0.215447C107.713 0.23363 107.886 0.251811 108.057 0.2753C110.776 0.607275 113.449 1.24352 116.029 2.17229C116.201 2.23455 116.374 2.29946 116.544 2.36437C119.361 3.42874 122.039 4.83714 124.517 6.55814C124.689 6.67747 124.861 6.79946 125.031 6.92144C126.709 8.12992 128.285 9.47623 129.743 10.9466C130.913 12.1261 132.002 13.3833 133.005 14.7098C133.179 14.9375 133.349 15.1684 133.519 15.4021C138.135 21.7784 140.613 29.4748 140.593 37.3709V134.225Z" fill="#CCCCCC"/>
<path d="M134.569 90.9057C136.834 90.9057 138.67 89.0531 138.67 86.7677C138.67 84.4824 136.834 82.6298 134.569 82.6298C132.304 82.6298 130.468 84.4824 130.468 86.7677C130.468 89.0531 132.304 90.9057 134.569 90.9057Z" fill="#407BFF"/>
<path d="M152.409 131.324H149.266L147.771 119.094L152.409 119.095L152.409 131.324Z" fill="#FFB8B8"/>
<path d="M147.022 130.418H153.082V134.268H143.206C143.206 133.762 143.304 133.262 143.496 132.795C143.688 132.328 143.969 131.903 144.323 131.546C144.678 131.188 145.098 130.904 145.561 130.711C146.024 130.518 146.52 130.418 147.022 130.418Z" fill="#2F2E41"/>
<path d="M168.044 131.324H164.902L163.407 119.094L168.045 119.095L168.044 131.324Z" fill="#FFB8B8"/>
<path d="M162.657 130.418H168.718V134.268H158.841C158.841 133.762 158.94 133.262 159.132 132.795C159.324 132.328 159.605 131.903 159.959 131.546C160.313 131.188 160.734 130.904 161.197 130.711C161.66 130.518 162.156 130.418 162.657 130.418Z" fill="#2F2E41"/>
<path d="M136.645 87.5875C136.418 87.2514 136.268 86.8694 136.204 86.4684C136.14 86.0674 136.164 85.6571 136.275 85.2665C136.385 84.8758 136.579 84.5143 136.842 84.2074C137.106 83.9005 137.433 83.6556 137.801 83.4901L148.483 53.7831L153.74 56.6774L141.543 85.0665C141.777 85.7081 141.77 86.4142 141.524 87.051C141.277 87.6879 140.807 88.2113 140.203 88.522C139.6 88.8328 138.904 88.9093 138.248 88.737C137.592 88.5648 137.022 88.1558 136.645 87.5875Z" fill="#FFB8B8"/>
<path d="M166.439 93.1696C166.09 92.9675 165.789 92.6907 165.557 92.3586C165.325 92.0264 165.169 91.6471 165.098 91.2472C165.027 90.8474 165.044 90.4367 165.148 90.0443C165.251 89.6518 165.439 89.287 165.698 88.9756L162.388 57.5506L168.37 57.8263L169.746 88.7369C170.235 89.2097 170.536 89.8473 170.591 90.5289C170.646 91.2104 170.451 91.8887 170.044 92.4351C169.636 92.9814 169.044 93.358 168.38 93.4934C167.715 93.6287 167.025 93.5135 166.439 93.1696Z" fill="#FFB8B8"/>
<path d="M156.896 48.2805C160.373 48.2805 163.192 45.4366 163.192 41.9285C163.192 38.4204 160.373 35.5765 156.896 35.5765C153.419 35.5765 150.601 38.4204 150.601 41.9285C150.601 45.4366 153.419 48.2805 156.896 48.2805Z" fill="#FFB8B8"/>
<path d="M166.399 86.0225H147.419L147.442 85.8735C147.476 85.6508 150.825 63.5185 148.355 56.2778C148.107 55.5663 148.129 54.7874 148.416 54.0911C148.703 53.3948 149.236 52.8303 149.911 52.5062C153.441 50.829 160.217 48.7637 165.936 53.7759C166.777 54.5255 167.435 55.4625 167.855 56.5127C168.276 57.5628 168.449 58.6974 168.361 59.8266L166.399 86.0225Z" fill="#407BFF"/>
<path d="M151.064 66.7893L142.519 65.0402L146.525 55.4635C146.765 54.5359 147.359 53.7422 148.178 53.2563C148.997 52.7704 149.973 52.6321 150.893 52.8717C151.813 53.1114 152.601 53.7093 153.085 54.5344C153.568 55.3596 153.708 56.3445 153.473 57.2732L151.064 66.7893Z" fill="#407BFF"/>
<path d="M162.008 70.037L161.495 58.1555C161.105 55.922 162.372 53.8106 164.321 53.4655C166.271 53.1216 168.174 54.6707 168.565 56.9206L170.496 68.0227L162.008 70.037Z" fill="#407BFF"/>
<path d="M165.767 84.6001C168.821 96.3355 169.154 111.256 168.331 127.531L164.229 127.014L156.796 95.9795L152.695 127.531L148.081 127.273C146.703 110.196 145.361 95.5359 147.569 85.8932L165.767 84.6001Z" fill="#2F2E41"/>
<path d="M161.044 46.8375C159.87 48.0998 157.689 47.4222 157.536 45.6977C157.524 45.5638 157.524 45.4291 157.538 45.2954C157.617 44.5315 158.055 43.838 157.95 43.0315C157.926 42.8308 157.852 42.6395 157.734 42.4757C156.799 41.2113 154.602 43.0413 153.718 41.8966C153.177 41.1947 153.813 40.0896 153.398 39.3051C152.849 38.2697 151.224 38.7804 150.206 38.2134C149.072 37.5825 149.14 35.8276 149.886 34.7601C150.796 33.4583 152.392 32.7637 153.967 32.6636C155.543 32.5634 157.108 32.9932 158.579 33.5717C160.251 34.2289 161.908 35.1373 162.937 36.6202C164.188 38.4236 164.308 40.8481 163.683 42.9569C163.302 44.2397 162.003 45.8067 161.044 46.8375Z" fill="#2F2E41"/>
<path d="M215.306 134.391H26.0647C25.984 134.391 25.9066 134.358 25.8495 134.301C25.7925 134.243 25.7604 134.165 25.7604 134.083C25.7604 134.002 25.7925 133.924 25.8495 133.866C25.9066 133.808 25.984 133.776 26.0647 133.775H215.306C215.386 133.776 215.464 133.808 215.521 133.866C215.578 133.924 215.61 134.002 215.61 134.083C215.61 134.165 215.578 134.243 215.521 134.301C215.464 134.358 215.386 134.391 215.306 134.391Z" fill="#3F3D56"/>
<path d="M120.215 106.164H86.8931C86.4542 106.167 86.0324 105.994 85.72 105.682C85.4077 105.371 85.2304 104.948 85.227 104.505V29.4611C85.2304 29.0183 85.4077 28.595 85.72 28.2839C86.0324 27.9729 86.4542 27.7996 86.8931 27.8019H120.215C120.654 27.7996 121.076 27.9729 121.388 28.2839C121.7 28.595 121.878 29.0183 121.881 29.4611V104.505C121.878 104.948 121.7 105.371 121.388 105.682C121.076 105.994 120.654 106.167 120.215 106.164Z" fill="white"/>
<path d="M121.881 52.0839H85.227V52.6011H121.881V52.0839Z" fill="#CCCCCC"/>
<path d="M122.009 81.5953H85.3551V82.1126H122.009V81.5953Z" fill="#CCCCCC"/>
<path d="M97.274 27.8019H96.7614V106.423H97.274V27.8019Z" fill="#CCCCCC"/>
<path d="M110.09 27.8019H109.578V106.423H110.09V27.8019Z" fill="#CCCCCC"/>
</svg>
