<svg width="201" height="150" viewBox="0 0 201 150" fill="none" xmlns="http://www.w3.org/2000/svg">
<path d="M201 131.615H0V131.715H201V131.615Z" fill="#EBEBEB"/>
<path d="M180.86 138.083H167.546V138.183H180.86V138.083Z" fill="#EBEBEB"/>
<path d="M133.15 139.176H129.657V139.277H133.15V139.176Z" fill="#EBEBEB"/>
<path d="M167.144 134.352H159.429V134.453H167.144V134.352Z" fill="#EBEBEB"/>
<path d="M38.4513 135.028H21.0889V135.128H38.4513V135.028Z" fill="#EBEBEB"/>
<path d="M44.5778 135.028H42.0331V135.128H44.5778V135.028Z" fill="#EBEBEB"/>
<path d="M90.5103 136.724H52.8509V136.825H90.5103V136.724Z" fill="#EBEBEB"/>
<path d="M95.274 113.686H17.6518C17.0437 113.684 16.4609 113.442 16.0313 113.012C15.6017 112.581 15.3604 111.998 15.3604 111.39V2.27529C15.3657 1.67069 15.6093 1.0926 16.0384 0.666573C16.4674 0.24055 17.0472 0.00100519 17.6518 -3.05176e-05H95.274C95.8828 -3.05176e-05 96.4666 0.241808 96.8971 0.672283C97.3276 1.10276 97.5694 1.68661 97.5694 2.29539V111.39C97.5694 111.999 97.3276 112.583 96.8971 113.013C96.4666 113.444 95.8828 113.686 95.274 113.686ZM17.6518 0.0803698C17.0704 0.0814347 16.5131 0.313154 16.1024 0.724666C15.6916 1.13618 15.4609 1.69386 15.4609 2.27529V111.39C15.4609 111.972 15.6916 112.529 16.1024 112.941C16.5131 113.352 17.0704 113.584 17.6518 113.585H95.274C95.8558 113.584 96.4135 113.352 96.8249 112.941C97.2363 112.53 97.4678 111.972 97.4689 111.39V2.27529C97.4678 1.69349 97.2363 1.13582 96.8249 0.72442C96.4135 0.313023 95.8558 0.0814324 95.274 0.0803698H17.6518Z" fill="#EBEBEB"/>
<path d="M182.231 113.686H104.604C103.996 113.684 103.413 113.442 102.982 113.012C102.552 112.582 102.31 111.999 102.309 111.39V2.27529C102.315 1.67032 102.56 1.09223 102.99 0.666322C103.419 0.240409 103.999 0.000993895 104.604 -3.05176e-05H182.231C182.835 0.00206169 183.413 0.242074 183.841 0.667984C184.27 1.09389 184.513 1.67139 184.518 2.27529V111.39C184.518 111.998 184.277 112.58 183.849 113.01C183.42 113.441 182.838 113.683 182.231 113.686ZM104.604 0.0803698C104.023 0.0814324 103.465 0.313023 103.054 0.72442C102.642 1.13582 102.411 1.69349 102.409 2.27529V111.39C102.411 111.972 102.642 112.53 103.054 112.941C103.465 113.352 104.023 113.584 104.604 113.585H182.231C182.812 113.584 183.37 113.352 183.781 112.941C184.193 112.53 184.424 111.972 184.426 111.39V2.27529C184.424 1.69349 184.193 1.13582 183.781 0.72442C183.37 0.313023 182.812 0.0814324 182.231 0.0803698H104.604Z" fill="#EBEBEB"/>
<path d="M155.226 88.2775C161.178 82.3259 161.178 72.6766 155.226 66.7251C149.275 60.7736 139.625 60.7736 133.674 66.7251C127.722 72.6766 127.722 82.3259 133.674 88.2774C139.625 94.229 149.275 94.229 155.226 88.2775Z" fill="#F0F0F0"/>
<path d="M28.4214 50.652H70.153C70.153 50.652 69.55 47.3475 61.8276 47.5365C63.3592 42.7125 59.0377 37.4463 49.2892 37.2453C39.5407 37.0443 42.9658 44.8833 42.9658 44.8833C42.9658 44.8833 26.5803 42.0693 31.5369 47.9063C23.4165 48.2159 21.8125 49.253 28.4214 50.652Z" fill="#F0F0F0"/>
<path d="M136.748 71.3188C137.697 66.5712 129.585 61.3693 114.638 61.1683C99.692 60.9673 107.189 68.7139 107.189 68.7139C107.189 68.7139 81.3769 65.8999 90.6269 71.6927C78.3176 71.9701 76.1549 72.9952 86.6591 74.3941H150.348C150.348 74.3941 148.475 71.154 136.748 71.3188Z" fill="#FAFAFA"/>
<path d="M128.467 35.7498H171.706C171.706 35.7498 181.354 30.2103 169.917 29.4947C171.883 24.7591 167.055 16.7272 150.175 16.5423C133.295 16.3573 142.047 27.4405 142.047 27.4405C142.047 27.4405 116.319 20.0236 125.344 31.8183C121.404 31.8183 107.386 35.7498 128.467 35.7498Z" fill="#F5F5F5"/>
<path d="M37.9126 93.1153H57.3413C57.3413 93.1153 61.6789 90.6269 56.5373 90.3013C57.4217 88.1747 55.2509 84.5647 47.6651 84.4803C40.0794 84.3959 44.015 89.3767 44.015 89.3767C44.015 89.3767 32.4534 86.0481 36.5056 91.3465C34.7408 91.3505 28.4375 93.1153 37.9126 93.1153Z" fill="#F5F5F5"/>
<path d="M37.0363 17.2538C37.0363 17.2538 31.553 13.7403 27.738 18.7372C30.8696 15.6338 36.8232 18.7613 36.8232 18.7613C36.8232 18.7613 43.6572 15.6659 45.9084 18.7613C43.4843 13.7725 37.0363 17.2538 37.0363 17.2538Z" fill="#F0F0F0"/>
<path d="M66.4305 63.516C66.4305 63.516 63.1341 61.4015 60.8347 64.4084C62.7241 62.5391 66.3059 64.4084 66.3059 64.4084C66.3059 64.4084 70.4063 62.5432 71.7771 64.4084C70.3138 61.4336 66.4305 63.516 66.4305 63.516Z" fill="#F0F0F0"/>
<path d="M126.538 14.5283C126.538 14.5283 124.889 13.471 123.724 14.9745C124.668 14.0379 126.461 14.9745 126.461 14.9745C126.461 14.9745 128.511 14.0459 129.195 14.9745C128.479 13.4791 126.538 14.5283 126.538 14.5283Z" fill="#F5F5F5"/>
<path d="M166.858 50.6198C166.858 50.6198 165.206 49.5626 164.044 51.066C164.985 50.1334 166.778 51.066 166.778 51.066C166.778 51.066 168.828 50.1334 169.511 51.066C168.796 49.5706 166.858 50.6198 166.858 50.6198Z" fill="#F5F5F5"/>
<path d="M100.5 149.769C143.547 149.769 178.444 147.732 178.444 145.218C178.444 142.705 143.547 140.668 100.5 140.668C57.4528 140.668 22.5562 142.705 22.5562 145.218C22.5562 147.732 57.4528 149.769 100.5 149.769Z" fill="#F5F5F5"/>
<path d="M74.1127 121.312C75.4835 129.247 69.0837 133.155 62.8567 131.185C58.6156 129.838 54.4147 130.871 51.5686 132.23C51.4563 132.28 51.3303 132.291 51.2111 132.261C51.0919 132.231 50.9863 132.161 50.9115 132.063C50.8367 131.966 50.7969 131.846 50.7987 131.723C50.8005 131.6 50.8437 131.481 50.9213 131.386C51.4003 130.812 51.9117 130.265 52.453 129.75C52.5418 129.666 52.5995 129.554 52.6165 129.433C52.6336 129.312 52.609 129.189 52.5468 129.084C52.4847 128.979 52.3886 128.898 52.2744 128.854C52.1602 128.811 52.0346 128.808 51.9183 128.845C49.442 129.601 45.7918 130.308 42.2703 129.48C42.1644 129.456 42.0683 129.4 41.9944 129.321C41.9205 129.241 41.8721 129.141 41.8557 129.034C41.8392 128.926 41.8554 128.816 41.9021 128.718C41.9488 128.62 42.0238 128.538 42.1175 128.483C45.635 126.401 51.0017 120.93 56.0308 119.153C56.1539 119.109 56.2572 119.022 56.3216 118.909C56.3859 118.795 56.4071 118.662 56.3812 118.534C56.3553 118.406 56.284 118.291 56.1805 118.211C56.077 118.132 55.9482 118.092 55.8177 118.1C55.0243 118.145 54.2348 118.241 53.4539 118.389C53.3269 118.421 53.1927 118.405 53.0761 118.346C52.9594 118.286 52.8682 118.187 52.8193 118.065C52.7703 117.944 52.7669 117.809 52.8097 117.685C52.8524 117.562 52.9385 117.457 53.0519 117.392C60.103 113.014 72.36 111.177 74.1127 121.312Z" fill="#407BFF"/>
<path opacity="0.7" d="M74.1127 121.312C75.4835 129.247 69.0837 133.155 62.8567 131.185C58.6156 129.838 54.4147 130.871 51.5686 132.23C51.4563 132.28 51.3303 132.291 51.2111 132.261C51.0919 132.231 50.9863 132.161 50.9115 132.063C50.8367 131.966 50.7969 131.846 50.7987 131.723C50.8005 131.6 50.8437 131.481 50.9213 131.386C51.4003 130.812 51.9117 130.265 52.453 129.75C52.5418 129.666 52.5995 129.554 52.6165 129.433C52.6336 129.312 52.609 129.189 52.5468 129.084C52.4847 128.979 52.3886 128.898 52.2744 128.854C52.1602 128.811 52.0346 128.808 51.9183 128.845C49.442 129.601 45.7918 130.308 42.2703 129.48C42.1644 129.456 42.0683 129.4 41.9944 129.321C41.9205 129.241 41.8721 129.141 41.8557 129.034C41.8392 128.926 41.8554 128.816 41.9021 128.718C41.9488 128.62 42.0238 128.538 42.1175 128.483C45.635 126.401 51.0017 120.93 56.0308 119.153C56.1539 119.109 56.2572 119.022 56.3216 118.909C56.3859 118.795 56.4071 118.662 56.3812 118.534C56.3553 118.406 56.284 118.291 56.1805 118.211C56.077 118.132 55.9482 118.092 55.8177 118.1C55.0243 118.145 54.2348 118.241 53.4539 118.389C53.3269 118.421 53.1927 118.405 53.0761 118.346C52.9594 118.286 52.8682 118.187 52.8193 118.065C52.7703 117.944 52.7669 117.809 52.8097 117.685C52.8524 117.562 52.9385 117.457 53.0519 117.392C60.103 113.014 72.36 111.177 74.1127 121.312Z" fill="white"/>
<path d="M65.4617 132.893L62.7683 112.158C62.7546 112.047 62.7655 111.934 62.8002 111.827C62.835 111.72 62.8927 111.622 62.9694 111.54C63.046 111.458 63.1398 111.394 63.2439 111.352C63.3481 111.31 63.4602 111.292 63.5723 111.298L76.6373 112.23C76.813 112.243 76.9791 112.316 77.1073 112.437C77.2356 112.557 77.318 112.719 77.3408 112.894L79.3508 128.487C79.3691 128.66 79.3281 128.833 79.2346 128.98C79.141 129.126 79.0005 129.236 78.8362 129.291L66.4425 133.524C66.3364 133.557 66.2244 133.566 66.1144 133.551C66.0044 133.535 65.8991 133.496 65.8057 133.436C65.7123 133.376 65.6332 133.297 65.5738 133.203C65.5143 133.109 65.4761 133.003 65.4617 132.893Z" fill="black"/>
<path d="M62.8607 129.002L61.2527 116.564C61.2392 116.458 61.2482 116.349 61.2791 116.247C61.3101 116.144 61.3624 116.049 61.4326 115.968C61.5027 115.887 61.5892 115.821 61.6864 115.776C61.7835 115.73 61.8892 115.706 61.9964 115.704L76.9991 115.422C77.1874 115.419 77.3703 115.485 77.5128 115.608C77.6552 115.731 77.7472 115.903 77.7709 116.09L78.9769 125.251C79.0001 125.438 78.9539 125.626 78.8472 125.781C78.7405 125.936 78.5807 126.047 78.398 126.091L63.8215 129.645C63.7157 129.673 63.6051 129.679 63.4971 129.661C63.3891 129.643 63.2861 129.603 63.1951 129.542C63.1041 129.481 63.0272 129.401 62.9695 129.308C62.9118 129.215 62.8747 129.11 62.8607 129.002Z" fill="#263238"/>
<path d="M128.272 126.775L120.434 128.065L120.501 128.47L128.339 127.179L128.272 126.775Z" fill="#407BFF"/>
<path d="M118.396 128.403L116.091 128.782L116.158 129.187L118.462 128.807L118.396 128.403Z" fill="#407BFF"/>
<path d="M151.486 111.189C151.486 111.189 140.676 101.063 125.191 103.069L76.4162 107.68C75.5219 107.764 74.6537 108.028 73.8635 108.455C73.0732 108.882 72.3771 109.464 71.8166 110.166C71.2561 110.867 70.8427 111.675 70.6011 112.54C70.3595 113.405 70.2946 114.31 70.4103 115.201L72.0666 127.985C72.1819 128.876 72.4755 129.734 72.9298 130.509C73.3842 131.284 73.99 131.96 74.7111 132.495C75.4322 133.031 76.2538 133.416 77.1269 133.627C78 133.839 78.9067 133.872 79.793 133.725L128.133 125.746C143.614 123.74 151.486 111.189 151.486 111.189Z" fill="#407BFF"/>
<path d="M125.639 115.992C125.844 111.409 122.295 107.529 117.713 107.324C113.131 107.119 109.25 110.667 109.045 115.25C108.84 119.832 112.389 123.713 116.971 123.918C121.553 124.123 125.434 120.574 125.639 115.992Z" fill="white"/>
<path opacity="0.3" d="M122.932 116.065C122.826 117.347 122.285 118.553 121.399 119.484C120.512 120.415 119.334 121.015 118.059 121.183C117.979 121.183 117.895 121.203 117.81 121.207C117.455 121.241 117.096 121.241 116.741 121.207C116.616 121.207 116.488 121.179 116.367 121.159L116.098 121.107C114.978 120.85 113.964 120.256 113.191 119.406C112.419 118.556 111.925 117.49 111.776 116.351C111.743 116.084 111.729 115.816 111.732 115.547C111.803 114.162 112.383 112.851 113.361 111.868C114.339 110.884 115.646 110.296 117.031 110.217C118.416 110.138 119.781 110.573 120.865 111.438C121.949 112.304 122.675 113.54 122.903 114.908C122.954 115.292 122.963 115.68 122.932 116.065Z" fill="#407BFF"/>
<path opacity="0.3" d="M122.932 116.066C122.826 117.347 122.285 118.553 121.399 119.484C120.512 120.415 119.334 121.015 118.059 121.183C117.979 121.183 117.895 121.203 117.81 121.207C117.454 121.239 117.097 121.239 116.741 121.207C116.616 121.207 116.488 121.179 116.367 121.159L116.098 121.107C114.978 120.85 113.964 120.256 113.191 119.406C112.419 118.556 111.925 117.49 111.776 116.351C111.743 116.084 111.729 115.816 111.732 115.547C111.861 114.311 112.414 113.158 113.299 112.285C114.183 111.412 115.343 110.872 116.58 110.759C119.655 110.393 122.473 112.431 122.883 115.31C122.917 115.56 122.933 115.813 122.932 116.066Z" fill="#407BFF"/>
<path d="M105.674 103.065L108.186 102.816L108.54 97.075L106.027 97.3242L105.674 103.065Z" fill="#CF7A64"/>
<path d="M91.25 104.556L93.7223 104.311L94.2489 98.4699L91.7766 98.7151L91.25 104.556Z" fill="#CF7A64"/>
<path d="M93.863 103.756L91.0811 104.034C91.0328 104.039 90.9877 104.06 90.9534 104.095C90.919 104.129 90.8974 104.174 90.8922 104.223L90.6791 106.466C90.6749 106.52 90.6824 106.574 90.7011 106.624C90.7198 106.675 90.7493 106.721 90.7875 106.759C90.8257 106.798 90.8717 106.827 90.9224 106.846C90.9731 106.864 91.0273 106.872 91.0811 106.868C92.0499 106.755 92.5122 106.651 93.7343 106.53C94.4861 106.454 95.4951 106.385 96.5483 106.281C97.6016 106.176 97.5975 105.139 97.1594 105.075C95.2016 104.85 94.9604 104.335 94.281 103.849C94.1573 103.769 94.0089 103.736 93.863 103.756Z" fill="#263238"/>
<path d="M108.259 102.297L105.557 102.57C105.508 102.574 105.462 102.595 105.428 102.63C105.393 102.664 105.372 102.71 105.368 102.759L105.155 105.002C105.15 105.056 105.157 105.111 105.176 105.162C105.194 105.213 105.224 105.259 105.262 105.298C105.3 105.336 105.347 105.365 105.398 105.384C105.449 105.402 105.503 105.409 105.557 105.404C106.53 105.292 107.929 105.091 109.155 104.97C110.59 104.825 110.598 104.902 112.279 104.733C113.292 104.629 113.444 103.575 113.01 103.527C111.02 103.298 110.675 103.29 108.87 102.43C108.681 102.332 108.47 102.287 108.259 102.297Z" fill="#263238"/>
<path d="M98.6226 22.4879C99.2498 22.5442 99.9573 22.6125 100.633 22.6447C101.308 22.6768 101.983 22.7009 102.643 22.7009C103.278 22.6994 103.913 22.6618 104.544 22.5884C105.045 22.5364 105.535 22.4104 105.999 22.2145L105.26 23.3482C105.26 23.4808 105.288 23.4808 105.26 23.4004C105.226 23.2772 105.177 23.1584 105.115 23.0467C104.927 22.7037 104.704 22.3805 104.452 22.0819C103.873 21.3884 103.251 20.7319 102.59 20.1161C101.915 19.4689 101.203 18.8417 100.484 18.2186C99.7643 17.5955 99.0166 16.9765 98.293 16.3775L99.2578 14.874C100.154 15.3323 100.998 15.8308 101.851 16.3493C102.703 16.8679 103.523 17.4307 104.335 18.0337C105.174 18.6435 105.965 19.3153 106.703 20.0437C107.112 20.4574 107.482 20.9082 107.808 21.3904C108.009 21.6877 108.173 22.0075 108.299 22.3432C108.481 22.8137 108.544 23.3217 108.484 23.8225L108.395 24.53L107.736 24.9682C106.942 25.4734 106.057 25.8189 105.131 25.9853C104.336 26.1482 103.53 26.2477 102.719 26.2828C101.939 26.327 101.171 26.3189 100.412 26.2828C99.6518 26.2466 98.9161 26.1903 98.1121 26.0697L98.6226 22.4879Z" fill="#CE7A63"/>
<path d="M100.098 15.678L98.6186 13.8248L97.5091 16.482C97.5091 16.482 98.8518 18.0618 100.275 17.286L100.098 15.678Z" fill="#CF7A64"/>
<path d="M96.6569 12.8519L96.4076 15.8669L97.5091 16.4619L98.6146 13.8167L96.6569 12.8519Z" fill="#CF7A64"/>
<path d="M94.8439 13.2379L97.0951 12.3052C97.1315 12.2862 97.1717 12.2753 97.2127 12.2733C97.2538 12.2712 97.2948 12.2781 97.333 12.2933C97.3712 12.3086 97.4056 12.3319 97.4339 12.3617C97.4622 12.3916 97.4838 12.4271 97.4971 12.466L98.9483 17.0931C98.9657 17.1744 98.9539 17.2593 98.9149 17.3328C98.876 17.4064 98.8123 17.4638 98.7352 17.4951L96.484 18.4277C96.4476 18.4467 96.4074 18.4576 96.3664 18.4597C96.3253 18.4617 96.2843 18.4549 96.2461 18.4396C96.2079 18.4243 96.1735 18.401 96.1452 18.3712C96.1169 18.3414 96.0953 18.3058 96.082 18.2669L94.6308 13.668C94.6057 13.5827 94.6137 13.491 94.6532 13.4113C94.6927 13.3316 94.7608 13.2696 94.8439 13.2379Z" fill="#263238"/>
<path d="M96.1704 26.9018C97.8066 28.8797 104.512 27.0264 104.512 27.0264L103.945 22.512C103.945 22.512 102.253 22.0055 98.896 21.9009C95.4549 21.7763 94.3775 24.735 96.1704 26.9018Z" fill="#407BFF"/>
<path opacity="0.2" d="M108.54 97.0789L108.355 100.038L105.847 100.287L106.027 97.3282L108.54 97.0789Z" fill="black"/>
<path opacity="0.2" d="M91.7726 98.7191L94.2489 98.4699L93.9755 101.481L91.5032 101.73L91.7726 98.7191Z" fill="black"/>
<path d="M101.324 23.1431C102.297 25.6677 104.685 33.1931 103.853 44.5537L90.6188 45.8843C90.2731 43.8743 90.2168 32.8233 87.0491 23.4688C88.48 23.0419 89.9369 22.7076 91.4108 22.4678C93.2742 22.1703 95.1534 21.9811 97.0388 21.901C98.0019 21.8996 98.9644 21.9546 99.9211 22.0658C100.231 22.0998 100.526 22.2183 100.773 22.4082C101.021 22.5982 101.211 22.8524 101.324 23.1431Z" fill="#407BFF"/>
<path opacity="0.2" d="M96.2388 25.2054L95.7202 25.2737C95.7724 29.6957 95.8368 30.9017 91.8449 35.0343C91.1241 35.7678 90.4702 36.5643 89.8912 37.4142C89.9434 37.9367 89.9957 38.4433 90.044 38.9337C91.0771 37.989 92.456 36.7508 93.4851 35.8906C98.1282 32.0153 96.3714 25.1491 96.2388 25.2054Z" fill="black"/>
<path opacity="0.2" d="M90.2208 25.539C90.6228 27.0867 90.6228 30.8977 89.658 35.392C89.2128 31.6682 88.4421 27.9906 87.3546 24.4014C88.2108 24.2044 89.8269 24.0878 90.2208 25.539Z" fill="black"/>
<path d="M91.4871 17.1452C92.07 18.914 92.5283 21.1331 91.4107 22.4677C91.4107 22.4677 92.3675 24.2245 95.7322 23.8868C98.8035 23.5772 97.0387 21.9009 97.0387 21.9009C94.9564 21.6235 94.7514 19.1231 94.9282 17.6839L91.4871 17.1452Z" fill="#CF7A64"/>
<path d="M95.877 23.718L96.681 24.4496C96.709 24.4751 96.7299 24.5073 96.7419 24.5432C96.7539 24.5791 96.7564 24.6175 96.7493 24.6547L96.5845 25.3903C96.5764 25.4309 96.5557 25.4678 96.5254 25.496C96.4951 25.5241 96.4567 25.542 96.4157 25.5471L95.6318 25.6637C95.5955 25.6692 95.5584 25.6655 95.524 25.6529C95.4895 25.6402 95.4588 25.619 95.4348 25.5913L94.8961 24.9481C94.8671 24.9107 94.8513 24.8648 94.8513 24.8175C94.8513 24.7702 94.8671 24.7242 94.8961 24.6868L95.5674 23.7461C95.5854 23.7232 95.6078 23.7041 95.6334 23.6902C95.659 23.6762 95.6871 23.6677 95.7161 23.665C95.7451 23.6624 95.7744 23.6657 95.802 23.6748C95.8297 23.684 95.8552 23.6986 95.877 23.718Z" fill="#263238"/>
<path d="M95.6277 23.6939C95.2903 24.5718 94.8461 25.4049 94.3052 26.1742C94.3052 26.1742 91.0369 24.6868 90.8399 22.5562C90.8363 22.5174 90.8425 22.4783 90.858 22.4425C90.8735 22.4066 90.8976 22.3753 90.9284 22.3512C91.053 22.2547 91.2781 22.0779 91.4912 21.901C91.5159 21.8784 91.5454 21.8616 91.5775 21.8519C91.6095 21.8422 91.6433 21.8397 91.6765 21.8448C91.7096 21.8498 91.7412 21.8621 91.7689 21.8809C91.7967 21.8996 91.8199 21.9244 91.8369 21.9532C92.0982 22.4155 92.9424 23.316 95.6277 23.6939Z" fill="white"/>
<path d="M95.7443 23.6697C96.4274 24.1853 96.9978 24.8351 97.4207 25.5792C97.7328 25.0348 97.9207 24.4281 97.9707 23.8026C98.0207 23.1771 97.9317 22.5483 97.7101 21.9612C97.6959 21.9265 97.6741 21.8955 97.6462 21.8705C97.6184 21.8454 97.5853 21.827 97.5493 21.8165C97.4086 21.7803 97.1473 21.716 96.878 21.6637C96.8423 21.6579 96.8058 21.6604 96.7713 21.6711C96.7368 21.6817 96.7053 21.7003 96.6791 21.7252C96.653 21.7502 96.6331 21.7808 96.6208 21.8148C96.6086 21.8488 96.6044 21.8851 96.6086 21.921C96.6761 22.2669 96.6281 22.6254 96.4719 22.9414C96.3157 23.2573 96.0601 23.5132 95.7443 23.6697Z" fill="white"/>
<path d="M96.2147 25.1772C96.3433 25.121 97.6458 31.2716 93.1514 35.0061C91.3183 36.5297 88.3716 39.2513 88.3757 39.2472C88.649 38.1659 89.5093 36.4976 91.668 34.3107C95.5715 30.359 95.5674 29.2857 95.7282 25.2657L96.2147 25.1772Z" fill="#263238"/>
<path opacity="0.2" d="M94.9283 17.6879C94.7846 18.6937 94.9238 19.7196 95.3303 20.6507C95.0106 20.636 94.6949 20.5737 94.3936 20.4658C93.1876 20.0638 92.5243 19.2598 91.7806 18.0538C91.6962 17.7362 91.6037 17.4307 91.5072 17.1332L94.9283 17.6879Z" fill="black"/>
<path d="M93.5735 11.658C94.0519 7.87517 96.8338 11.8791 96.0619 13.7604C95.5876 14.9102 93.4569 12.5705 93.5735 11.658Z" fill="#263238"/>
<path d="M89.7465 15.091C90.6992 17.3905 91.1414 18.7854 92.7333 19.6055C95.1252 20.8477 97.6217 18.8377 97.3644 16.3131C97.1352 14.0418 95.6157 10.661 93.0188 10.468C92.4488 10.4207 91.8764 10.5229 91.358 10.7644C90.8396 11.0059 90.3932 11.3785 90.0628 11.8453C89.7324 12.3121 89.5294 12.857 89.4739 13.4262C89.4185 13.9954 89.5124 14.5692 89.7465 15.091Z" fill="#CF7A64"/>
<path d="M90.8198 17.3141C91.1234 17.2609 91.4052 17.1216 91.6319 16.9128C91.8585 16.704 92.0204 16.4344 92.0982 16.1362C91.4123 15.8608 90.8176 15.3984 90.3816 14.8016C90.3816 14.8016 91.4027 13.3343 91.2942 12.4861C92.6047 12.4861 95.676 11.2198 94.9805 9.82082C94.2851 8.42186 91.5273 7.7264 89.9193 8.71532C88.9057 9.40608 87.7047 9.76947 86.4782 9.7565C86.8437 9.97322 87.2413 10.1306 87.6561 10.2228C87.2032 10.6655 86.8486 11.1985 86.6152 11.7872C86.3818 12.3759 86.2748 13.0071 86.3013 13.6398C86.3777 15.4368 85.4008 16.1604 85.4008 16.1604C85.4008 16.1604 86.6068 16.3413 86.9767 15.8106C86.8119 16.3975 87.8048 18.4558 89.9877 18.7412C92.4318 19.0588 90.8198 17.3141 90.8198 17.3141Z" fill="#263238"/>
<path d="M89.8188 18.4156C90.7233 18.8176 91.4268 18.9543 91.8931 18.6809C92.3595 18.4076 92.2268 17.4749 91.6318 16.9403C91.0972 16.4699 90.0439 16.0237 89.4329 16.5383C88.8219 17.0528 88.8862 17.9895 89.8188 18.4156Z" fill="#CF7A64"/>
<path d="M103.853 44.5537C103.853 44.5537 109.545 63.2708 109.947 70.35C110.389 78.0965 109.272 98.683 109.272 98.683L104.797 99.1372C104.797 99.1372 103.961 79.5357 102.828 71.954C101.597 63.725 95.4187 45.422 95.4187 45.422L103.853 44.5537Z" fill="#263238"/>
<path opacity="0.2" d="M99.9331 53.3775L99.2296 57.486C100.215 60.8105 101.199 64.3521 101.919 67.4274C102.134 62.6615 101.461 57.8971 99.9331 53.3775Z" fill="black"/>
<path d="M104.428 98.0197L104.572 99.6719L109.577 99.1694L109.722 97.3001L104.428 98.0197Z" fill="#407BFF"/>
<path d="M99.1573 45.024C99.1573 45.024 101.011 61.7592 100.363 68.9832C99.6437 76.8905 95.0649 100.544 95.0649 100.544L90.5344 100.998C90.5344 100.998 93.0268 78.189 93.0268 70.4465C93.0268 62.0246 90.6148 45.9003 90.6148 45.9003L99.1573 45.024Z" fill="#263238"/>
<path d="M90.3776 99.5513L90.3133 101.107L95.2941 100.604L95.8006 98.8437L90.3776 99.5513Z" fill="#407BFF"/>
<path d="M93.4971 14.6007C93.5614 14.7937 93.7182 14.9143 93.8388 14.8741C93.9594 14.8339 94.0117 14.6449 93.9433 14.4721C93.875 14.2992 93.7263 14.1585 93.6016 14.1987C93.477 14.2389 93.4288 14.4077 93.4971 14.6007Z" fill="#263238"/>
<path d="M95.6358 13.9052C95.7001 14.0982 95.8569 14.2188 95.9775 14.1786C96.0981 14.1384 96.1504 13.9494 96.082 13.7766C96.0137 13.6037 95.8649 13.463 95.7403 13.5032C95.6157 13.5434 95.5715 13.7163 95.6358 13.9052Z" fill="#263238"/>
<path d="M94.9886 14.2227C95.4161 14.7321 95.9096 15.1822 96.4559 15.5614C96.3589 15.6972 96.2328 15.8096 96.0867 15.8903C95.9406 15.971 95.7783 16.018 95.6117 16.0277L94.9886 14.2227Z" fill="#BA4D3C"/>
<path d="M95.1373 16.8116C95.1514 16.8054 95.1626 16.7941 95.1686 16.7799C95.1746 16.7657 95.1749 16.7497 95.1695 16.7353C95.1632 16.721 95.1521 16.7095 95.138 16.7029C95.124 16.6962 95.108 16.6949 95.0931 16.6991C94.8594 16.7871 94.6084 16.8195 94.3599 16.7937C94.1115 16.7679 93.8726 16.6846 93.662 16.5503C93.6507 16.5393 93.6355 16.5331 93.6197 16.5331C93.604 16.5331 93.5888 16.5393 93.5775 16.5503C93.5674 16.5621 93.5617 16.577 93.5617 16.5926C93.5617 16.6081 93.5674 16.6231 93.5775 16.6348C93.8038 16.7883 94.0639 16.8847 94.3356 16.9155C94.6073 16.9463 94.8824 16.9107 95.1373 16.8116Z" fill="#263238"/>
<path d="M92.6128 14.1142C92.6295 14.1084 92.6448 14.0989 92.6573 14.0864C92.6698 14.0739 92.6793 14.0586 92.6851 14.0419C92.7251 13.9013 92.7987 13.7726 92.8996 13.6668C93.0004 13.5611 93.1255 13.4814 93.264 13.4348C93.2791 13.4312 93.2933 13.4244 93.3057 13.415C93.3181 13.4056 93.3284 13.3937 93.3359 13.3801C93.3435 13.3665 93.3481 13.3515 93.3496 13.336C93.351 13.3205 93.3493 13.3049 93.3444 13.2901C93.3359 13.26 93.3161 13.2344 93.2891 13.2187C93.2621 13.2029 93.23 13.1983 93.1997 13.2057C93.0241 13.2618 92.8649 13.3599 92.7359 13.4917C92.607 13.6234 92.5123 13.7847 92.46 13.9615C92.4528 13.9827 92.4518 14.0056 92.4569 14.0275C92.462 14.0493 92.4731 14.0693 92.489 14.0852C92.5049 14.1011 92.5249 14.1122 92.5467 14.1173C92.5686 14.1224 92.5915 14.1214 92.6128 14.1142Z" fill="#263238"/>
<path d="M96.3313 12.8278C96.3484 12.8209 96.3636 12.8099 96.3755 12.7957C96.3964 12.7733 96.408 12.7439 96.408 12.7133C96.408 12.6827 96.3964 12.6532 96.3755 12.6309C96.2387 12.502 96.0736 12.4069 95.8936 12.3532C95.7135 12.2995 95.5234 12.2885 95.3383 12.3213C95.3235 12.3255 95.3097 12.3325 95.2976 12.3421C95.2855 12.3516 95.2754 12.3635 95.268 12.3769C95.2605 12.3904 95.2558 12.4052 95.254 12.4205C95.2523 12.4358 95.2536 12.4513 95.2579 12.466C95.2616 12.4812 95.2684 12.4955 95.2777 12.508C95.2871 12.5205 95.2989 12.531 95.3124 12.5389C95.3259 12.5468 95.3408 12.5519 95.3563 12.5538C95.3718 12.5558 95.3876 12.5547 95.4026 12.5505C95.5471 12.5282 95.6947 12.5394 95.8342 12.5833C95.9736 12.6272 96.101 12.7027 96.2066 12.8037C96.2231 12.8189 96.2435 12.8292 96.2655 12.8335C96.2875 12.8378 96.3103 12.8358 96.3313 12.8278Z" fill="#263238"/>
<path d="M85.4732 27.549L88.842 28.9118C88.842 28.9118 86.0682 37.1609 86.6672 38.2784C87.4712 39.798 89.646 42.222 90.9364 43.8341C90.8181 44.441 90.5407 45.0057 90.1324 45.4702C87.4229 44.1838 83.1537 40.1437 82.9326 38.596C82.4462 35.0664 85.4732 27.549 85.4732 27.549Z" fill="#CF7A64"/>
<path d="M87.0491 23.4687C84.2954 24.3612 83.9095 30.4836 83.9095 30.4836L88.1707 32.6705C89.3957 31.2122 90.2753 29.4957 90.7435 27.6495C91.4872 24.5421 89.4691 22.6848 87.0491 23.4687Z" fill="#407BFF"/>
<path d="M94.7353 104.118C94.9036 104.116 95.0657 104.055 95.1936 103.945C95.2336 103.903 95.2622 103.851 95.277 103.795C95.2918 103.739 95.2921 103.68 95.278 103.623C95.2732 103.59 95.2596 103.558 95.2384 103.531C95.2172 103.504 95.1892 103.483 95.1574 103.471C94.868 103.358 94.1283 103.925 94.0439 103.989C94.0382 103.999 94.0353 104.01 94.0353 104.021C94.0353 104.033 94.0382 104.044 94.0439 104.054C94.0465 104.065 94.0526 104.075 94.0613 104.082C94.07 104.089 94.0808 104.093 94.0921 104.094C94.3048 104.128 94.5207 104.136 94.7353 104.118ZM95.0368 103.571C95.0632 103.565 95.0908 103.565 95.1172 103.571C95.1297 103.577 95.1404 103.586 95.1482 103.597C95.1559 103.609 95.1605 103.622 95.1614 103.636C95.1715 103.674 95.1721 103.714 95.163 103.753C95.1538 103.791 95.1354 103.827 95.1092 103.857C94.8456 104.009 94.5339 104.057 94.2368 103.989C94.4724 103.794 94.7443 103.646 95.0368 103.555V103.571Z" fill="#407BFF"/>
<path d="M94.0881 104.082C94.0881 104.082 94.0881 104.082 94.1162 104.082C94.3574 103.917 94.7835 103.326 94.6951 103.057C94.6808 103.015 94.6528 102.979 94.6156 102.955C94.5784 102.931 94.5342 102.92 94.4901 102.924C94.445 102.923 94.4001 102.931 94.3585 102.948C94.3169 102.965 94.2795 102.991 94.2489 103.025C93.9916 103.286 94.0237 104.005 94.0237 104.034C94.0229 104.045 94.0256 104.056 94.0313 104.065C94.0371 104.074 94.0457 104.082 94.0559 104.086L94.0881 104.082ZM94.4619 103.029H94.4901C94.5664 103.029 94.5785 103.065 94.5825 103.077C94.6348 103.238 94.3695 103.68 94.1403 103.881C94.1216 103.599 94.1904 103.318 94.3373 103.077C94.374 103.045 94.4213 103.028 94.47 103.029H94.4619Z" fill="#407BFF"/>
<path d="M109.344 102.627C109.556 102.626 109.761 102.55 109.923 102.413C109.96 102.375 109.986 102.328 109.999 102.277C110.013 102.225 110.013 102.171 109.999 102.12C109.993 102.088 109.979 102.057 109.959 102.031C109.939 102.006 109.913 101.985 109.883 101.971C109.561 101.835 108.628 102.438 108.524 102.506C108.515 102.514 108.507 102.524 108.503 102.535C108.499 102.546 108.498 102.558 108.5 102.57C108.503 102.582 108.51 102.593 108.519 102.6C108.528 102.608 108.54 102.613 108.552 102.614C108.815 102.643 109.08 102.647 109.344 102.627ZM109.726 102.068C109.763 102.059 109.801 102.059 109.838 102.068C109.851 102.073 109.861 102.081 109.869 102.092C109.877 102.102 109.881 102.115 109.883 102.128C109.892 102.162 109.892 102.197 109.883 102.231C109.875 102.265 109.858 102.296 109.834 102.321C109.702 102.474 109.296 102.534 108.737 102.502C109.046 102.3 109.387 102.154 109.746 102.068H109.726Z" fill="#407BFF"/>
<path d="M108.564 102.615H108.588C108.87 102.454 109.392 101.859 109.316 101.585C109.296 101.521 109.239 101.445 109.075 101.445C109.017 101.443 108.959 101.454 108.905 101.477C108.852 101.5 108.804 101.534 108.765 101.577C108.571 101.869 108.478 102.217 108.5 102.566C108.5 102.576 108.503 102.586 108.507 102.594C108.512 102.603 108.519 102.61 108.528 102.615C108.534 102.617 108.54 102.619 108.546 102.619C108.552 102.619 108.559 102.617 108.564 102.615ZM109.042 101.553H109.079C109.187 101.553 109.199 101.593 109.203 101.606C109.252 101.77 108.902 102.233 108.616 102.446C108.608 102.16 108.69 101.879 108.85 101.642C108.902 101.591 108.97 101.56 109.042 101.553Z" fill="#407BFF"/>
<path d="M90.3294 43.4883L92.6972 43.5687L91.254 46.037C91.254 46.037 89.1837 45.8963 88.9747 44.2803L90.3294 43.4883Z" fill="#CF7A64"/>
<path d="M93.8067 44.3928L92.3715 46.5636L91.2339 46.037L92.6972 43.5687L93.8067 44.3928Z" fill="#CF7A64"/>
</svg>
