<svg xmlns="http://www.w3.org/2000/svg" viewBox="0 0 512 512" id="Mechanic">
  <path fill="#57acfe" d="M368.623 505V404.464h60.075V333.71a66 66 0 0 0-42.95-61.844l-67.69-25.23a33 33 0 0 1-21.475-30.922v-22.975h-81.164v22.975a33 33 0 0 1-21.475 30.922l-67.69 25.23a66 66 0 0 0-42.95 61.844v70.755h64.08L147.388 512h214.235a7 7 0 0 0 7-7Z" class="color57aafe svgShape"></path>
  <path fill="#0054a5" d="M365.123 371.184a3.5 3.5 0 0 0-3.5 3.5v136.215a3.454 3.454 0 0 0 .19 1.091 6.995 6.995 0 0 0 6.81-6.989V374.684a3.5 3.5 0 0 0-3.5-3.5zM154.19 512a3.457 3.457 0 0 0 .194-1.1V374.683a3.5 3.5 0 0 0-7 0v29.78l.004 106.474a3.48 3.48 0 0 0 .19 1.062zm71.98-54.858-11.223-31.107a31.065 31.065 0 0 1-20.892-52.195l7.984 22.154a4.101 4.101 0 0 0 5.245 2.463l19.007-6.856a4.104 4.104 0 0 0 2.462-5.247l-7.984-22.154a31.083 31.083 0 0 1 17.243 53.526l14.217 39.416" class="color416bd0 svgShape"></path>
  <path fill="#0054a5" d="m230.473 250.635 25.527-.491 25.528.491v206.539l-51.055-5.966V250.635z" class="color416bd0 svgShape"></path>
  <path fill="#a2caf1" d="M304.771 237.471a32.982 32.982 0 0 1-8.188-21.758v-22.975h-81.164v22.975a32.987 32.987 0 0 1-8.912 22.557C203.095 241.915 256 267.635 256 267.635s52.297-26.142 48.771-30.164Z" class="colorf1b0a2 svgShape"></path>
  <path fill="#57acfe" d="M244.474 434.832V264.369l11.526-.221 11.528.221v173.836l-23.054-3.373z" class="color57aafe svgShape"></path>
  <circle cx="256" cy="296.5" r="3.5" fill="#0054a5" class="color416bd0 svgShape"></circle>
  <circle cx="256" cy="317.5" r="3.5" fill="#0054a5" class="color416bd0 svgShape"></circle>
  <circle cx="256" cy="338.5" r="3.5" fill="#0054a5" class="color416bd0 svgShape"></circle>
  <circle cx="256" cy="359.5" r="3.5" fill="#0054a5" class="color416bd0 svgShape"></circle>
  <path fill="#f0f2f3" d="M250.413 498.576 255.252 512h26.06l-4.839-13.424h-26.06z" class="colorf3f0f3 svgShape"></path>
  <path fill="#4fa9ff" d="M83.302 382.277h64.082v22.187H83.302z" class="colorff7b4f svgShape"></path>
  <path fill="#0054a5" d="M343.951 374.684H294.05a3.5 3.5 0 0 1 0-7h49.902a3.5 3.5 0 0 1 0 7Z" class="color416bd0 svgShape"></path>
  <path fill="#a2caf1" d="M90.302 512h57.082V404.464H83.302V505a7 7 0 0 0 7 7Z" class="colorf1b0a2 svgShape"></path>
  <path fill="#4fa9ff" d="M368.624 382.277h60.074v22.187h-60.074z" class="colorff7b4f svgShape"></path>
  <path fill="#7bb1e5" d="M321.72 151.685v-39.78h9.831a9.227 9.227 0 0 1 9.069 10.914l-2.891 15.554a16.285 16.285 0 0 1-16.01 13.312zm-127.839 0v-39.78h-9.832a9.227 9.227 0 0 0-9.068 10.914l2.891 15.554a16.285 16.285 0 0 0 16.009 13.312zM297.65 224.01a32.958 32.958 0 0 1-1.067-8.298v-22.975h-81.164v17.017a63.907 63.907 0 0 0 82.23 14.256z" class="colore58a7b svgShape"></path>
  <path fill="#a2caf1" d="M321.334 86.092a18.155 18.155 0 0 1-20.525 10.006l-27.768-6.401a67.841 67.841 0 0 0-30.481 0l-27.769 6.401a18.155 18.155 0 0 1-20.525-10.006c-.134-.287-.256-.579-.385-.868v69.93A63.932 63.932 0 0 0 257.8 219.1a63.932 63.932 0 0 0 63.919-63.945v-69.93c-.129.29-.251.581-.386.868Z" class="colorf1b0a2 svgShape"></path>
  <path fill="#313d48" d="M279.025 117.519a3.5 3.5 0 0 1-1.33-6.739 31.595 31.595 0 0 1 24.042 0 3.5 3.5 0 1 1-2.656 6.476 24.884 24.884 0 0 0-9.988-1.844 24.561 24.561 0 0 0-8.74 1.844 3.485 3.485 0 0 1-1.328.263zm10.692 16.215a3.5 3.5 0 0 1-3.5-3.5v-6.807a3.5 3.5 0 1 1 7 0v6.807a3.5 3.5 0 0 1-3.5 3.5zm-74.525-16.215a3.5 3.5 0 0 1-1.33-6.739 31.595 31.595 0 0 1 24.042 0 3.5 3.5 0 0 1-2.656 6.476 24.871 24.871 0 0 0-9.988-1.844 24.561 24.561 0 0 0-8.74 1.844 3.485 3.485 0 0 1-1.328.263zm10.692 16.215a3.5 3.5 0 0 1-3.5-3.5v-6.807a3.5 3.5 0 0 1 7 0v6.807a3.5 3.5 0 0 1-3.5 3.5z" class="color313848 svgShape"></path>
  <path fill="#313d48" fill-rule="evenodd" d="M321.72 155.154v-16.237l-11.083 20.539a26.686 26.686 0 0 1-33.445 12.09l-10.725-4.315h-17.334l-10.724 4.314a26.686 26.686 0 0 1-33.446-12.09l-11.082-20.539v16.238a63.92 63.92 0 1 0 127.838 0Z" class="color313848 svgShape"></path>
  <path fill="#a2caf1" d="M257.812 196.417q-.406 0-.813-.01a31.525 31.525 0 0 1-11.22-2.366 3.5 3.5 0 1 1 2.66-6.475 24.553 24.553 0 0 0 8.738 1.843 24.944 24.944 0 0 0 9.987-1.844 3.5 3.5 0 1 1 2.656 6.476 31.492 31.492 0 0 1-12.008 2.376Z" class="colorf1b0a2 svgShape"></path>
  <path fill="#7bb1e5" d="M321.72 85.224c-.129.29-.25.581-.386.868a18.155 18.155 0 0 1-20.525 10.006l-27.768-6.402a67.843 67.843 0 0 0-30.481 0l-27.77 6.402a18.155 18.155 0 0 1-20.524-10.006c-.134-.287-.256-.579-.385-.868V97.87c.129.29.25.581.385.869a18.155 18.155 0 0 0 20.525 10.006l27.769-6.402a67.839 67.839 0 0 1 30.48 0l27.77 6.402a18.155 18.155 0 0 0 20.524-10.006c.135-.288.257-.58.386-.868Z" class="colore58a7b svgShape"></path>
  <path fill="#4fa9ff" d="M194.266 86.092a18.155 18.155 0 0 0 20.525 10.006l27.769-6.401a67.841 67.841 0 0 1 30.481 0l27.768 6.401a18.155 18.155 0 0 0 20.525-10.006 50.536 50.536 0 0 0 3.806-31.148l-6.43-32.713a22.645 22.645 0 0 0-22.218-18.28h-77.383a22.645 22.645 0 0 0-22.217 18.28l-6.431 32.713a50.536 50.536 0 0 0 3.805 31.148Z" class="colorff7b4f svgShape"></path>
  <path fill="#57acfe" d="M296.492 3.95h-77.383a22.645 22.645 0 0 0-22.217 18.28l-6.431 32.714a271.042 271.042 0 0 1 133.758 0l.805-.592-6.315-32.121a22.645 22.645 0 0 0-22.217-18.28Z" class="color57aafe svgShape"></path>
  <path fill="#7bb1e5" d="M268.347 155.752v5.473a10.547 10.547 0 0 1-10.547 10.547 10.547 10.547 0 0 1-10.547-10.547v-5.473a3 3 0 0 1 3-3h15.094a3 3 0 0 1 3 3Z" class="colore58a7b svgShape"></path>
  <circle cx="257.8" cy="25.186" r="8.586" fill="#ffffff" class="colorffffff svgShape"></circle>
  <path fill="#a2caf1" d="M252.576 431.203h10.553a13.305 13.305 0 0 1 10.776 5.5l10.903 15.054 92.257-13.191v22.118l-108.677 17.665-9.16-28.207-6.652-18.94" class="colorf1b0a2 svgShape"></path>
  <path fill="#a2caf1" d="M259.576 431.203h10.553a13.305 13.305 0 0 1 10.776 5.5l10.903 15.054 92.257-13.191v22.118l-108.677 17.665-9.16-28.207-6.652-18.94" class="colorf1b0a2 svgShape"></path>
  <path fill="#7bb1e5" d="m291.808 451.757 85.257-12.191v-1l-85.914 12.284.657.907zM266.229 450.142l-6.652-18.939h-7l6.652 18.939 9.159 28.207 6.649-1.081-8.808-27.126z" class="colore58a7b svgShape"></path>
  <path fill="#0054a5" d="M318.057 246.635a32.99 32.99 0 0 1-20.056-21.396L256 264.148l11.528 17.494 20.023 13.606a7.234 7.234 0 0 0 10.515-2.707l22.792-44.863Z" class="color416bd0 svgShape"></path>
  <path fill="#0054a5" d="M267.528 281.642v-17.273L256 264.148v9.66l11.528 7.834zM213.934 292.54a7.233 7.233 0 0 0 10.515 2.708l20.025-13.608L256 264.148l-42-38.907a32.99 32.99 0 0 1-20.055 21.394l-2.802 1.044Z" class="color416bd0 svgShape"></path>
  <path fill="#0054a5" d="M244.473 281.64 256 273.808v-9.66l-11.527.221v17.271z" class="color416bd0 svgShape"></path>
  <path fill="#57acfe" d="M282.17 281.93 256 264.148l40.625-46.98 13.365 24.923-19.1 37.594a6 6 0 0 1-8.72 2.245zm-52.34 0L256 264.148l-40.622-46.975-13.368 24.918 19.1 37.594a6 6 0 0 0 8.72 2.245z" class="color57aafe svgShape"></path>
  <path fill="#f0f2f3" d="m233.17 450.142-11.223-31.107a31.065 31.065 0 0 1-20.892-52.195l7.984 22.154a4.101 4.101 0 0 0 5.245 2.463l19.007-6.856a4.104 4.104 0 0 0 2.462-5.247l-7.984-22.154a31.083 31.083 0 0 1 17.243 53.526l14.217 39.416" class="colorf3f0f3 svgShape"></path>
  <path fill="#0054a5" d="m368.622 453.773-83.814 11.984-22.978-1.607H231.7a10.352 10.352 0 0 0-9.74 13.86l9.95 27.71a10.375 10.375 0 0 0 6.355 6.28h42.89a11.72 11.72 0 0 0 3.215-1.64l4.01-2.91a11.605 11.605 0 0 1 6.82-2.22h10.323l63.1-2.273Z" class="color416bd0 svgShape"></path>
  <path fill="#a2caf1" d="M428.698 404.464v50.225a33.275 33.275 0 0 1-32.07 33.26l-91.105 3.281H295.2a11.604 11.604 0 0 0-6.82 2.22l-4.01 2.91a11.657 11.657 0 0 1-6.83 2.22h-35.88a10.37 10.37 0 0 1-9.75-6.86l-9.95-27.71a10.351 10.351 0 0 1 9.74-13.86h30.13l22.978 1.607 83.815-11.984v-35.309Z" class="colorf1b0a2 svgShape"></path>
  <path fill="#7bb1e5" d="m368.623 439.773 10.417-2.028a2 2 0 0 0 .668-3.666l-11.086-6.837Z" class="colore58a7b svgShape"></path>
</svg>
