<svg width="175" height="176" viewBox="0 0 175 176" fill="none" xmlns="http://www.w3.org/2000/svg">
<g clip-path="url(#clip0_2_2977)">
<path d="M87.5 176C135.825 176 175 173.705 175 170.874C175 168.043 135.825 165.748 87.5 165.748C39.1751 165.748 0 168.043 0 170.874C0 173.705 39.1751 176 87.5 176Z" fill="#E6E6E6"/>
<path d="M99.1924 40.6062H98.2511V14.886C98.2511 10.938 96.6786 7.15169 93.8796 4.36002C91.0806 1.56835 87.2843 0 83.326 0H28.6915C24.7331 0 20.9369 1.56835 18.1379 4.36002C15.3389 7.15169 13.7664 10.938 13.7664 14.886V155.988C13.7664 159.936 15.3389 163.722 18.1379 166.514C20.9369 169.306 24.7331 170.874 28.6915 170.874H83.326C87.2843 170.874 91.0806 169.306 93.8796 166.514C96.6786 163.722 98.2511 159.936 98.2511 155.988V58.9142H99.1924V40.6062Z" fill="#3F3D56"/>
<path d="M95.0743 14.9901V155.884C95.0743 158.833 93.8999 161.66 91.8096 163.745C89.7193 165.83 86.8842 167.001 83.928 167.001H29.0315C26.0754 167.001 23.2405 165.83 21.1502 163.745C19.06 161.66 17.8856 158.833 17.8855 155.885V14.9901C17.8855 12.0417 19.0599 9.21404 21.1502 7.12919C23.2405 5.04434 26.0756 3.87305 29.0318 3.87299H35.6915C35.3642 4.67501 35.2396 5.54496 35.3285 6.4063C35.4175 7.26765 35.7173 8.09401 36.2016 8.81267C36.6859 9.53133 37.3398 10.1203 38.1059 10.5277C38.872 10.9351 39.7267 11.1485 40.5949 11.1492H71.8944C72.7626 11.1486 73.6174 10.9352 74.3835 10.5278C75.1496 10.1204 75.8036 9.53144 76.2879 8.81277C76.7722 8.09411 77.0721 7.26774 77.161 6.40637C77.25 5.545 77.1253 4.67503 76.798 3.87299H83.928C86.8842 3.87305 89.7193 5.04434 91.8096 7.12919C93.8999 9.21404 95.0743 12.0417 95.0743 14.9901Z" fill="white"/>
<path d="M43.2453 121.665H42.0907L42.4762 99.1729H42.8617L43.2453 121.665Z" fill="#E6E6E6"/>
<path d="M44.2072 85.0122L46.0708 82.1398C45.5181 80.6172 44.8798 79.1269 44.1589 77.676L42.9539 78.6469L43.9081 77.1762C42.9986 75.3911 42.2832 74.2662 42.2832 74.2662C42.2832 74.2662 38.5463 80.1399 37.2971 86.3598L39.6885 90.0459L37.0417 87.9132C36.9474 88.6377 36.8989 89.3674 36.8965 90.098C36.8965 97.4638 39.3085 103.435 42.2837 103.435C45.259 103.435 47.6709 97.4631 47.6709 90.098C47.6709 87.8146 47.1529 85.4256 46.4375 83.2155L44.2072 85.0122Z" fill="#CCCCCC"/>
<path d="M73.3009 121.665H72.1463L72.5317 99.1729H72.9172L73.3009 121.665Z" fill="#E6E6E6"/>
<path d="M74.2627 85.0122L76.1263 82.1398C75.5736 80.6172 74.9353 79.1269 74.2144 77.676L73.0094 78.6469L73.9636 77.1762C73.0541 75.3911 72.3387 74.2662 72.3387 74.2662C72.3387 74.2662 68.6013 80.1404 67.3534 86.3598L69.743 90.0454L67.0962 87.9127C67.0019 88.6372 66.9534 89.3669 66.951 90.0975C66.951 97.4633 69.363 103.434 72.3382 103.434C75.3135 103.434 77.7254 97.4626 77.7254 90.0975C77.7254 87.8141 77.2074 85.4251 76.492 83.215L74.2627 85.0122Z" fill="#CCCCCC"/>
<path d="M42.3667 47.1079C48.2253 47.1079 52.9746 42.371 52.9746 36.5277C52.9746 30.6845 48.2253 25.9476 42.3667 25.9476C36.5081 25.9476 31.7588 30.6845 31.7588 36.5277C31.7588 42.371 36.5081 47.1079 42.3667 47.1079Z" fill="#E6E6E6"/>
<path d="M57.0595 118.39H54.6791L55.4727 72.0135H56.266L57.0595 118.39Z" fill="#E6E6E6"/>
<path d="M59.0431 42.8155L62.8856 36.8934C61.7461 33.7539 60.4299 30.681 58.9434 27.6894L56.4587 29.6908L58.4261 26.6583C56.5502 22.9772 55.0759 20.658 55.0759 20.658C55.0759 20.658 47.3697 32.7698 44.7951 45.5936L49.7247 53.1943L44.266 48.7969C44.0716 50.2907 43.9716 51.7953 43.9666 53.3016C43.9666 68.4893 48.9399 80.8013 55.0746 80.8013C61.2094 80.8013 66.1826 68.4893 66.1826 53.3016C66.1826 48.5934 65.1146 43.6675 63.6414 39.1107L59.0431 42.8155Z" fill="#CCCCCC"/>
<path d="M95.0743 125.075V156.602C95.0743 162.997 90.0841 168.18 83.928 168.181H29.0315C22.8757 168.181 17.8852 162.997 17.8849 156.602V128.149C27.4028 116.543 41.1641 109.606 55.8304 109.022C70.4967 108.438 84.729 114.26 95.0743 125.075Z" fill="#E6E6E6"/>
<path opacity="0.2" d="M56.5397 156.175C65.5103 156.175 72.7825 148.922 72.7825 139.974C72.7825 131.027 65.5103 123.774 56.5397 123.774C47.569 123.774 40.2968 131.027 40.2968 139.974C40.2968 148.922 47.569 156.175 56.5397 156.175Z" fill="#407BFF"/>
<path d="M56.5397 153.019C63.7628 153.019 69.6184 147.179 69.6184 139.974C69.6184 132.77 63.7628 126.93 56.5397 126.93C49.3165 126.93 43.4609 132.77 43.4609 139.974C43.4609 147.179 49.3165 153.019 56.5397 153.019Z" fill="#407BFF"/>
<path d="M55.0142 145.552L50.4049 139.641L53.0854 137.562L55.2676 140.36L62.64 132.598L65.1054 134.928L55.0142 145.552Z" fill="white"/>
<path d="M126.043 119.685C130.726 119.685 134.523 115.898 134.523 111.227C134.523 106.556 130.726 102.769 126.043 102.769C121.359 102.769 117.562 106.556 117.562 111.227C117.562 115.898 121.359 119.685 126.043 119.685Z" fill="#2F2E41"/>
<path d="M129.479 158.709L130.132 161.783L142.331 160.732L141.367 156.196L129.479 158.709Z" fill="#FFB8B8"/>
<path d="M128.529 168.315L126.477 158.654L130.219 157.863L131.479 163.792C131.583 164.282 131.589 164.788 131.497 165.28C131.406 165.773 131.217 166.243 130.943 166.663C130.67 167.083 130.315 167.445 129.901 167.729C129.487 168.012 129.021 168.212 128.529 168.315Z" fill="#2F2E41"/>
<path d="M121.837 158.545L120.464 161.373L108.874 157.437L110.901 153.263L121.837 158.545Z" fill="#FFB8B8"/>
<path d="M118.674 163.004L121.322 157.55L124.765 159.213L120.45 168.101C119.537 167.66 118.837 166.876 118.504 165.92C118.171 164.964 118.232 163.915 118.674 163.004Z" fill="#2F2E41"/>
<path d="M99.002 152.959C99.3987 153.033 99.8069 153.019 100.198 152.918C100.588 152.818 100.952 152.633 101.264 152.377C101.575 152.121 101.826 151.8 102 151.436C102.173 151.073 102.265 150.676 102.268 150.273L121.38 132.699L116.634 129.032L99.3299 147.471C98.6513 147.51 98.0108 147.797 97.5299 148.276C97.0489 148.755 96.7609 149.393 96.7205 150.07C96.6801 150.747 96.8901 151.415 97.3107 151.947C97.7313 152.48 98.3331 152.84 99.0022 152.959L99.002 152.959Z" fill="#FFB8B8"/>
<path d="M124.978 120.067C128.464 120.067 131.29 117.249 131.29 113.772C131.29 110.295 128.464 107.477 124.978 107.477C121.493 107.477 118.667 110.295 118.667 113.772C118.667 117.249 121.493 120.067 124.978 120.067Z" fill="#FFB8B8"/>
<path d="M130.643 150.776C126.215 150.776 120.883 149.846 117.594 146.04L117.52 145.954L117.597 145.87C117.622 145.843 120.042 143.084 117.625 138.165L114.303 139.185L110.995 134.83L112.827 129.348L120.325 123.325C121.399 122.467 122.707 121.95 124.079 121.841C126.563 121.601 128.982 120.914 131.219 119.813C132.243 119.316 133.371 119.07 134.509 119.095L134.656 119.099C135.002 119.109 135.343 119.189 135.657 119.333C135.971 119.478 136.253 119.685 136.485 119.942C136.716 120.199 136.893 120.499 137.005 120.826C137.116 121.153 137.16 121.499 137.134 121.844C136.625 128.413 135.728 144.281 138.365 149.745L138.433 149.886L138.281 149.925C135.774 150.487 133.213 150.772 130.643 150.775L130.643 150.776Z" fill="#407BFF"/>
<path d="M118.462 145.956C118.462 145.956 101.759 144.418 99.9597 149.288C98.1609 154.158 100.217 156.465 103.3 157.49C106.384 158.515 113.836 159.797 113.836 159.797L117.177 155.696L125.914 156.208C125.914 156.208 135.65 161.84 138.342 167.863C138.919 169.167 139.84 170.29 141.006 171.113C142.173 171.936 143.541 172.428 144.966 172.537C147.124 172.687 149.042 171.874 149.042 168.51C149.042 160.821 138.249 149.8 138.249 149.8L118.462 145.956Z" fill="#2F2E41"/>
<path d="M105.742 153.517C105.742 153.517 110.11 152.236 117.049 155.568L105.742 153.517Z" fill="#2F2E41"/>
<path d="M118.682 109.757C121.147 111.258 123.926 112.171 126.803 112.426L125.947 111.403C126.57 111.633 127.226 111.763 127.89 111.788C128.222 111.797 128.552 111.729 128.853 111.588C129.155 111.448 129.419 111.239 129.624 110.978C129.792 110.707 129.892 110.4 129.915 110.082C129.938 109.765 129.884 109.446 129.757 109.154C129.496 108.572 129.09 108.065 128.577 107.683C127.669 106.967 126.597 106.485 125.457 106.282C124.316 106.079 123.143 106.16 122.042 106.519C121.287 106.743 120.61 107.176 120.089 107.767C119.834 108.065 119.656 108.421 119.573 108.804C119.489 109.187 119.502 109.585 119.611 109.961" fill="#2F2E41"/>
<path d="M125.997 104.726C127.119 102.129 128.797 99.8081 130.915 97.9277C132.275 96.7231 133.863 95.6869 135.655 95.3742C137.447 95.0615 139.467 95.5972 140.566 97.043C141.466 98.2253 141.633 99.8093 141.534 101.29C141.435 102.77 141.103 104.237 141.135 105.72C141.167 107.233 141.578 108.715 142.331 110.03C143.083 111.345 144.152 112.452 145.442 113.25C146.732 114.048 148.201 114.512 149.716 114.601C151.232 114.689 152.745 114.398 154.119 113.755C152.572 114.608 151.366 115.959 149.931 116.986C148.495 118.014 146.599 118.719 144.968 118.04C143.241 117.322 142.45 115.369 141.831 113.608L139.073 105.755C138.605 104.42 138.113 103.046 137.156 102.002C136.199 100.958 134.646 100.321 133.33 100.846C132.332 101.244 131.682 102.194 131.112 103.101C130.542 104.009 129.941 104.978 128.979 105.454C128.017 105.931 126.589 105.637 126.275 104.612" fill="#2F2E41"/>
<path d="M128.163 150.798C128.054 150.798 127.945 150.792 127.837 150.78C127.119 150.699 126.459 150.347 125.993 149.796C125.526 149.245 125.29 148.537 125.331 147.817C125.372 147.098 125.688 146.421 126.214 145.927C126.74 145.432 127.436 145.157 128.158 145.159C128.284 145.159 128.41 145.169 128.535 145.187L137.164 136.025L136.263 133.03L140.786 131.007L142.054 134.098C142.479 135.145 142.554 136.301 142.268 137.394C141.983 138.488 141.351 139.46 140.468 140.166L130.97 147.702C130.98 147.794 130.985 147.886 130.985 147.978C130.985 148.375 130.901 148.767 130.739 149.129C130.577 149.491 130.34 149.815 130.044 150.08C129.528 150.544 128.857 150.8 128.163 150.798Z" fill="#FFB8B8"/>
<path d="M134.908 120.326C135.207 120.193 135.53 120.122 135.858 120.117C136.185 120.112 136.51 120.173 136.813 120.297C137.116 120.42 137.391 120.604 137.622 120.836C137.852 121.068 138.033 121.344 138.153 121.647L142.618 132.885L135.679 137.498L134.908 120.326Z" fill="#407BFF"/>
</g>
<defs>
<clipPath id="clip0_2_2977">
<rect width="175" height="176" fill="white"/>
</clipPath>
</defs>
</svg>
